<svg width="26" height="26" viewBox="0 0 26 26" fill="none" xmlns="http://www.w3.org/2000/svg">
<g clip-path="url(#clip0_2_3130)">
<path d="M15.7082 11.1909H22.9341C23.1726 11.1909 23.4013 11.0961 23.5699 10.9275C23.7385 10.7589 23.8332 10.5302 23.8332 10.2917C23.8332 8.1368 22.9772 6.07018 21.4535 4.54644C19.9298 3.02271 17.8631 2.16669 15.7082 2.16669C15.4698 2.16669 15.2411 2.26142 15.0724 2.43005C14.9038 2.59867 14.8091 2.82738 14.8091 3.06585V10.2917C14.8091 10.5302 14.9038 10.7589 15.0724 10.9275C15.2411 11.0961 15.4698 11.1909 15.7082 11.1909Z" fill="#1E78E0"/>
<path d="M22.8364 13H14.0072C13.8777 13 13.7495 12.9745 13.6299 12.925C13.5103 12.8754 13.4017 12.8028 13.3101 12.7113C13.2186 12.6197 13.146 12.511 13.0964 12.3914C13.0469 12.2718 13.0214 12.1436 13.0214 12.0142V3.16334C13.0222 3.02282 12.9933 2.88371 12.9366 2.75514C12.8799 2.62658 12.7966 2.51146 12.6923 2.41734C12.5879 2.32322 12.4648 2.25223 12.3311 2.20903C12.1974 2.16583 12.0561 2.1514 11.9164 2.16667C9.88268 2.38262 7.95166 3.16981 6.3466 4.43722C4.74155 5.70463 3.52803 7.40048 2.84639 9.32866C2.16474 11.2568 2.04281 13.3386 2.49469 15.3332C2.94658 17.3277 3.95382 19.1537 5.39994 20.5998C6.84606 22.0459 8.67198 23.0531 10.6666 23.505C12.6611 23.9569 14.7429 23.835 16.6711 23.1533C18.5992 22.4717 20.2951 21.2582 21.5625 19.6531C22.8299 18.0481 23.6171 16.117 23.833 14.0833C23.8451 13.9454 23.8282 13.8064 23.7836 13.6753C23.7389 13.5442 23.6674 13.4238 23.5736 13.3219C23.4798 13.2199 23.3659 13.1387 23.2389 13.0832C23.112 13.0278 22.9749 12.9995 22.8364 13Z" fill="#1E78E0"/>
</g>
<defs>
<clipPath id="clip0_2_3130">
<rect width="26" height="26" fill="white"/>
</clipPath>
</defs>
</svg>
