<svg width="26" height="26" viewBox="0 0 26 26" fill="none" xmlns="http://www.w3.org/2000/svg">
<g clip-path="url(#clip0_2_2780)">
<path d="M15.7082 11.1909H22.9341C23.1726 11.1909 23.4013 11.0961 23.5699 10.9275C23.7385 10.7589 23.8332 10.5302 23.8332 10.2917C23.8332 8.1368 22.9772 6.07018 21.4535 4.54644C19.9298 3.02271 17.8631 2.16669 15.7082 2.16669C15.4698 2.16669 15.2411 2.26142 15.0724 2.43005C14.9038 2.59867 14.8091 2.82738 14.8091 3.06585V10.2917C14.8091 10.5302 14.9038 10.7589 15.0724 10.9275C15.2411 11.0961 15.4698 11.1909 15.7082 11.1909Z" fill="#A8ABB6"/>
<path d="M22.8365 13H14.0073C13.8779 13 13.7497 12.9745 13.6301 12.925C13.5105 12.8754 13.4018 12.8028 13.3102 12.7113C13.2187 12.6197 13.1461 12.511 13.0965 12.3914C13.047 12.2718 13.0215 12.1436 13.0215 12.0142V3.16334C13.0223 3.02282 12.9934 2.88371 12.9367 2.75514C12.88 2.62658 12.7967 2.51146 12.6924 2.41734C12.588 2.32322 12.465 2.25223 12.3312 2.20903C12.1975 2.16583 12.0562 2.1514 11.9165 2.16667C9.8828 2.38262 7.95178 3.16981 6.34672 4.43722C4.74167 5.70463 3.52815 7.40048 2.84651 9.32866C2.16486 11.2568 2.04293 13.3386 2.49482 15.3332C2.9467 17.3277 3.95394 19.1537 5.40006 20.5998C6.84618 22.0459 8.6721 23.0531 10.6667 23.505C12.6612 23.9569 14.743 23.835 16.6712 23.1533C18.5994 22.4717 20.2952 21.2582 21.5626 19.6531C22.83 18.0481 23.6172 16.117 23.8332 14.0833C23.8452 13.9454 23.8284 13.8064 23.7837 13.6753C23.739 13.5442 23.6675 13.4238 23.5737 13.3219C23.48 13.2199 23.366 13.1387 23.239 13.0832C23.1121 13.0278 22.975 12.9995 22.8365 13Z" fill="#A8ABB6"/>
</g>
<defs>
<clipPath id="clip0_2_2780">
<rect width="26" height="26" fill="white"/>
</clipPath>
</defs>
</svg>
