<svg width="36" height="25" viewBox="0 0 36 25" fill="none" xmlns="http://www.w3.org/2000/svg">
<path d="M33.9507 11.4324C31.7941 13.2417 28.8161 13.7193 26.1962 12.6901C25.3611 12.362 24.4055 12.0613 23.2038 11.9364C21.0278 11.7097 20.3974 9.19702 20.3974 9.19702C20.5805 9.66858 20.9179 10.0368 21.2746 10.3145C21.2112 9.43241 20.8024 8.06345 20.5503 7.61277C20.1631 6.92157 19.3231 6.22168 18.9849 5.81202C18.6112 5.35935 17.8822 4.73459 17.0903 4.75248C16.2195 4.77207 15.4348 5.25328 14.7011 5.72265C14.0487 6.13977 13.3925 6.56446 12.8457 7.11315C12.3501 7.61051 11.9423 8.21159 11.3474 8.5848C10.8328 8.90779 10.2202 9.03284 9.67097 9.29161C9.12117 9.55051 8.56342 10.0324 8.24472 10.5497C8.05946 10.8501 8.05946 10.8501 7.7169 11.6521C8.47294 11.2859 8.81242 11.0923 9.28932 10.9196C10.0808 10.6334 10.677 10.8809 11.3831 10.4231C11.7575 10.1805 11.9985 9.78253 12.3158 9.46916C13.499 8.30234 15.6303 8.39859 16.5965 7.04675C16.6985 8.0422 16.6926 8.78059 17.6324 9.61299C17.6154 9.75074 17.599 9.8841 17.5711 10.0095C17.4678 10.4692 17.4726 10.9451 17.5441 11.4106C17.5838 11.6676 17.5851 11.9295 17.5413 12.1895C17.436 12.8176 17.8597 14.6065 16.5015 14.5594C16.3532 14.5543 16.1543 14.2459 16.0245 14.1469C15.5477 13.7823 15.1414 13.7286 14.6229 13.5633C13.6158 13.2427 10.7015 13.8392 11.0337 16.3262C8.75894 16.8087 6.4299 17.633 4.04179 19.0726C15.7127 13.65 30.1635 21.1892 34.457 10.9917C34.2884 11.1436 34.1197 11.2905 33.9507 11.4324Z" fill="#478CDD"/>
<path d="M1.47147 23.8434C4.68248 13.1374 21.0168 20.9723 33.2276 15.4062C21.3864 22.3633 8.66331 15.7431 1.47147 23.8434Z" fill="#478CDD"/>
<path d="M8.82543 9.86403C8.82543 9.86403 7.55934 11.0676 7.71562 11.6526C7.78643 11.917 8.25705 11.6834 8.848 11.1003C9.13126 10.8209 9.97353 10.0185 9.80475 9.99789C9.63604 9.97751 9.29285 9.68881 8.82543 9.86403Z" fill="#478CDD"/>
</svg>
