<svg width="26" height="26" viewBox="0 0 26 26" fill="none" xmlns="http://www.w3.org/2000/svg">
<path d="M13.206 1.36206C10.1676 1.36206 7.12923 2.51971 4.81391 4.83503C0.183282 9.46566 0.183288 16.9887 4.81391 21.6193C9.44456 26.25 16.9676 26.25 21.5982 21.6193C26.2289 16.9887 26.2289 9.46567 21.5982 4.83503C19.2829 2.51972 16.2444 1.36206 13.206 1.36206ZM19.6459 8.85827C20.0661 8.84453 20.4591 9.5599 20.1701 9.84895L14.9271 15.093C14.6188 15.4013 14.3603 15.5118 13.9112 15.6356L6.85207 17.5821C6.40304 17.7059 5.93541 16.9125 6.2437 16.6042L11.4868 11.3602C11.795 11.0518 12.0536 10.9413 12.5026 10.8175L19.5617 8.87106C19.5898 8.86333 19.6179 8.85919 19.6459 8.85827ZM13.2068 11.8022C12.8291 11.8023 12.4668 11.9524 12.1997 12.2195C11.9326 12.4866 11.7826 12.8489 11.7826 13.2266C11.7826 13.6044 11.9327 13.9666 12.1998 14.2337C12.4669 14.5008 12.8291 14.6509 13.2068 14.6509C13.5846 14.6509 13.9469 14.5009 14.214 14.2338C14.4811 13.9667 14.6312 13.6044 14.6313 13.2266C14.6313 13.0396 14.5944 12.8544 14.5228 12.6815C14.4512 12.5087 14.3463 12.3517 14.2141 12.2194C14.0818 12.0872 13.9248 11.9822 13.7519 11.9107C13.5791 11.8391 13.3939 11.8022 13.2068 11.8022Z" fill="#A8ABB6"/>
</svg>
