<svg width="26" height="26" viewBox="0 0 26 26" fill="none" xmlns="http://www.w3.org/2000/svg">
<path d="M13.2059 1.36206C10.1675 1.36206 7.12911 2.51971 4.81379 4.83503C0.18316 9.46566 0.183166 16.9887 4.81379 21.6193C9.44444 26.25 16.9675 26.25 21.5981 21.6193C26.2287 16.9887 26.2287 9.46567 21.5981 4.83503C19.2828 2.51972 16.2443 1.36206 13.2059 1.36206ZM19.6458 8.85827C20.066 8.84453 20.459 9.5599 20.17 9.84895L14.927 15.093C14.6187 15.4013 14.3601 15.5118 13.9111 15.6356L6.85195 17.5821C6.40292 17.7059 5.93529 16.9125 6.24358 16.6042L11.4867 11.3602C11.7949 11.0518 12.0534 10.9413 12.5025 10.8175L19.5616 8.87106C19.5897 8.86333 19.6178 8.85919 19.6458 8.85827ZM13.2067 11.8022C12.829 11.8023 12.4667 11.9524 12.1996 12.2195C11.9325 12.4866 11.7824 12.8489 11.7824 13.2266C11.7825 13.6044 11.9325 13.9666 12.1996 14.2337C12.4667 14.5008 12.829 14.6509 13.2067 14.6509C13.5845 14.6509 13.9468 14.5009 14.2139 14.2338C14.481 13.9667 14.6311 13.6044 14.6311 13.2266C14.6311 13.0396 14.5943 12.8544 14.5227 12.6815C14.4511 12.5087 14.3462 12.3517 14.2139 12.2194C14.0817 12.0872 13.9246 11.9822 13.7518 11.9107C13.579 11.8391 13.3938 11.8022 13.2067 11.8022Z" fill="#1E78E0"/>
</svg>
