<svg width="83" height="37" viewBox="0 0 83 37" fill="none" xmlns="http://www.w3.org/2000/svg">
<path d="M10.1876 25.4725C10.1876 25.0142 10.5313 24.785 11.2474 24.785C11.9585 24.785 12.5001 25.124 12.9167 25.8243C12.9798 25.9303 13.1115 25.9771 13.224 25.9265L16.812 24.3119C16.9328 24.2576 16.984 24.113 16.9202 23.997C15.7868 21.9338 13.875 20.8893 11.1328 20.8893C9.55736 20.8893 8.18239 21.319 7.06523 22.1497C5.94807 22.9804 5.37517 24.1835 5.37517 25.7017C5.34652 28.6521 7.92459 29.712 9.9011 30.1417C11.2761 30.4854 12.3646 30.7719 12.3646 31.3161C12.3646 31.8317 11.9349 32.0895 11.0756 32.0895C10.0485 32.0895 9.33616 31.6537 8.93859 30.7599C8.88166 30.6319 8.73037 30.5699 8.60525 30.6329L4.88933 32.5036C4.77705 32.5602 4.72972 32.696 4.78708 32.8079C5.8788 34.9365 7.99321 36.0139 11.1042 36.0139C12.7943 36.0139 14.2265 35.6129 15.4583 34.8395C16.69 34.0661 17.2916 32.8343 17.2916 31.2015C17.3202 28.0219 14.7135 26.9907 12.6797 26.6183C11.3047 26.3032 10.1876 26.0168 10.1876 25.4725Z" fill="#478CDD"/>
<path d="M31.6559 28.2108C31.5993 28.4437 31.27 28.4488 31.2062 28.2177L29.3431 21.4608C29.3154 21.3601 29.2237 21.2903 29.1192 21.2903H25.4627C25.3582 21.2903 25.2666 21.3601 25.2388 21.4608L23.3757 28.2177C23.312 28.4488 22.9826 28.4437 22.926 28.2108L21.2899 21.4678C21.2646 21.3637 21.1714 21.2903 21.0642 21.2903H16.5192C16.3631 21.2903 16.2515 21.4413 16.2971 21.5905L20.5377 35.4486C20.5676 35.5462 20.6577 35.6129 20.7598 35.6129H25.0529C25.1568 35.6129 25.2481 35.5439 25.2764 35.444L27.0675 29.1253C27.1313 28.9001 27.4506 28.9001 27.5144 29.1253L29.3055 35.444C29.3339 35.5439 29.4251 35.6129 29.529 35.6129H33.8221C33.9242 35.6129 34.0143 35.5462 34.0442 35.4486L38.2848 21.5905C38.3304 21.4413 38.2188 21.2903 38.0627 21.2903H33.5177C33.4105 21.2903 33.3173 21.3637 33.292 21.4678L31.6559 28.2108Z" fill="#478CDD"/>
<path d="M43.1817 35.6129C43.3099 35.6129 43.4139 35.5089 43.4139 35.3806V21.5226C43.4139 21.3943 43.3099 21.2903 43.1817 21.2903H38.8911C38.7628 21.2903 38.6588 21.3943 38.6588 21.5226V35.3806C38.6588 35.5089 38.7628 35.6129 38.8911 35.6129H43.1817Z" fill="#478CDD"/>
<path d="M61.1659 20.8893C59.5098 20.8893 58.2024 21.4123 57.2206 22.4816C57.1141 22.5976 56.9243 22.5874 56.8291 22.462C56.0276 21.4059 54.8589 20.8893 53.3457 20.8893C51.9265 20.8893 50.7901 21.2933 49.9365 22.1182C49.7763 22.273 49.4786 22.1671 49.4786 21.9444V21.5226C49.4786 21.3943 49.3747 21.2903 49.2464 21.2903H44.9558C44.8275 21.2903 44.7235 21.3943 44.7235 21.5226V35.3806C44.7235 35.5089 44.8275 35.6129 44.9558 35.6129H49.2464C49.3747 35.6129 49.4786 35.5089 49.4786 35.3806V27.7928C49.4786 26.3032 50.1661 25.3866 51.4552 25.3866C52.6583 25.3866 53.2598 26.0454 53.2598 27.3917V35.3806C53.2598 35.5089 53.3638 35.6129 53.4921 35.6129H57.7826C57.9109 35.6129 58.0149 35.5089 58.0149 35.3806V27.7928C58.0149 26.3032 58.7024 25.3866 59.9914 25.3866C61.1659 25.3866 61.7674 26.0454 61.7674 27.3917V35.3806C61.7674 35.5089 61.8714 35.6129 61.9997 35.6129H66.3189C66.4472 35.6129 66.5512 35.5089 66.5512 35.3806V26.8475C66.5512 23.1522 64.4887 20.8893 61.1659 20.8893Z" fill="#478CDD"/>
<path d="M74.6172 36.0139C76.7656 36.0139 78.5703 35.2978 80.0312 33.8369C81.5207 32.376 82.2655 30.5713 82.2655 28.4516C82.2655 26.3319 81.5207 24.5559 80.0312 23.095C78.5703 21.6341 76.7656 20.8893 74.6172 20.8893C72.4975 20.8893 70.6928 21.6341 69.2033 23.095C67.7137 24.5559 66.969 26.3319 66.969 28.4516C66.969 30.5713 67.7137 32.376 69.2033 33.8369C70.6928 35.2978 72.4975 36.0139 74.6172 36.0139ZM74.6172 31.4307C72.9845 31.4307 71.7527 30.199 71.7527 28.4516C71.7527 26.7042 72.9845 25.4725 74.6172 25.4725C76.3073 25.4725 77.5104 26.7042 77.5104 28.4516C77.5104 30.199 76.3073 31.4307 74.6172 31.4307Z" fill="#478CDD"/>
<path d="M34.5773 10.9672C32.3563 12.8306 29.2893 13.3225 26.5911 12.2625C25.7311 11.9246 24.747 11.615 23.5093 11.4863C21.2684 11.2528 20.6191 8.66509 20.6191 8.66509C20.8077 9.15074 21.1551 9.52995 21.5225 9.81598C21.4572 8.90751 21.0362 7.49764 20.7765 7.03351C20.3778 6.32166 19.5127 5.60086 19.1644 5.17895C18.7795 4.71275 18.0287 4.06933 17.2132 4.08776C16.3164 4.10793 15.5082 4.60352 14.7526 5.08691C14.0807 5.51649 13.4048 5.95388 12.8417 6.51896C12.3314 7.03118 11.9113 7.65022 11.2987 8.03458C10.7687 8.36722 10.1379 8.496 9.57217 8.7625C9.00595 9.02914 8.43153 9.5254 8.10331 10.0581C7.91251 10.3675 7.91251 10.3675 7.55972 11.1935C8.33834 10.8164 8.68797 10.617 9.17912 10.4392C9.9942 10.1444 10.6082 10.3993 11.3355 9.92785C11.7211 9.67796 11.9692 9.26809 12.296 8.94536C13.5145 7.74367 15.7096 7.8428 16.7046 6.45057C16.8097 7.47577 16.8036 8.23621 17.7715 9.09348C17.754 9.23536 17.7371 9.3727 17.7083 9.5018C17.602 9.97529 17.6069 10.4654 17.6806 10.9448C17.7214 11.2095 17.7227 11.4792 17.6777 11.747C17.5693 12.3939 18.0056 14.2362 16.6068 14.1877C16.4541 14.1824 16.2492 13.8649 16.1155 13.7629C15.6245 13.3873 15.206 13.3321 14.672 13.1619C13.6348 12.8316 10.6335 13.446 10.9756 16.0073C8.63289 16.5042 6.23427 17.3531 3.77481 18.8358C15.7944 13.2511 30.677 21.0156 35.0988 10.5134C34.9252 10.6699 34.7514 10.8212 34.5773 10.9672Z" fill="#AFD0F8"/>
<path d="M1.12855 23.749C4.4355 12.7231 21.2579 20.7921 33.8335 15.0597C21.6385 22.2246 8.53527 15.4066 1.12855 23.749Z" fill="#6952D8"/>
<path d="M8.70197 9.35125C8.70197 9.35125 7.39805 10.5908 7.559 11.1933C7.63193 11.4656 8.11661 11.225 8.72522 10.6245C9.01694 10.3367 9.88437 9.51037 9.71055 9.48911C9.5368 9.46812 9.18336 9.17079 8.70197 9.35125Z" fill="#AFD0F8"/>
</svg>
