<svg width="16" height="16" viewBox="0 0 16 16" fill="none" xmlns="http://www.w3.org/2000/svg">
<path d="M6.56296 12.237C7.79517 12.237 8.93145 11.8385 9.86114 11.1745L13.3585 14.6719C13.5209 14.8342 13.7348 14.9154 13.9636 14.9154C14.4432 14.9154 14.7826 14.5464 14.7826 14.0742C14.7826 13.8529 14.7088 13.6389 14.5465 13.4839L11.0712 10.0013C11.8017 9.0421 12.237 7.85416 12.237 6.56293C12.237 3.44184 9.68406 0.888885 6.56296 0.888885C3.44925 0.888885 0.888916 3.43446 0.888916 6.56293C0.888916 9.68402 3.44187 12.237 6.56296 12.237ZM6.56296 11.0121C4.12807 11.0121 2.11374 8.99783 2.11374 6.56293C2.11374 4.12803 4.12807 2.11371 6.56296 2.11371C8.99786 2.11371 11.0122 4.12803 11.0122 6.56293C11.0122 8.99783 8.99786 11.0121 6.56296 11.0121Z" fill="#82879A"/>
</svg>
