<svg width="26" height="26" viewBox="0 0 26 26" fill="none" xmlns="http://www.w3.org/2000/svg">
<g clip-path="url(#clip0_2_4134)">
<path d="M13 14.625C13.8975 14.625 14.625 13.8975 14.625 13C14.625 12.1025 13.8975 11.375 13 11.375C12.1025 11.375 11.375 12.1025 11.375 13C11.375 13.8975 12.1025 14.625 13 14.625Z" fill="#1E78E0"/>
<path d="M23.7139 11.18L22.8581 8.45002C22.7657 8.13451 22.6107 7.84083 22.4023 7.58652C22.1939 7.33221 21.9365 7.12246 21.6453 6.9698C21.3541 6.81713 21.0352 6.72468 20.7075 6.69794C20.3798 6.67121 20.0501 6.71074 19.7381 6.81419L19.3697 6.93335C19.0812 7.02874 18.7738 7.05294 18.4739 7.00389C18.174 6.95485 17.8904 6.83401 17.6472 6.65169L17.5281 6.56502C17.2908 6.38343 17.0995 6.14861 16.9697 5.87952C16.8399 5.61043 16.7751 5.31458 16.7806 5.01585V4.71252C16.7858 4.03221 16.5209 3.37763 16.0439 2.89252C15.817 2.66334 15.5471 2.48125 15.2496 2.35669C14.9522 2.23212 14.633 2.16756 14.3106 2.16669H11.5481C10.8853 2.17525 10.2527 2.44531 9.78803 2.91807C9.32339 3.39082 9.06432 4.028 9.06723 4.69085V4.95085C9.06619 5.26532 8.9946 5.57553 8.85773 5.85865C8.72086 6.14176 8.5222 6.39055 8.2764 6.58669L8.13557 6.69502C7.86402 6.90044 7.54641 7.03644 7.21035 7.09119C6.87429 7.14594 6.52994 7.11779 6.20723 7.00919C5.91085 6.90662 5.59674 6.86526 5.28391 6.88761C4.97107 6.90995 4.66603 6.99554 4.38723 7.13919C4.09696 7.28326 3.83944 7.48552 3.6307 7.7334C3.42196 7.98128 3.26647 8.26946 3.1739 8.58002L2.28557 11.3967C2.07956 12.0317 2.13239 12.7224 2.43258 13.3187C2.73278 13.9151 3.25609 14.3689 3.8889 14.5817H4.06223C4.35415 14.6911 4.61615 14.8678 4.82697 15.0974C5.03778 15.3271 5.19148 15.6032 5.27557 15.9034L5.34057 16.0767C5.46133 16.4083 5.50172 16.7639 5.4584 17.1142C5.41509 17.4644 5.28931 17.7995 5.0914 18.0917C4.6908 18.6372 4.52183 19.3189 4.62124 19.9884C4.72065 20.6579 5.0804 21.2611 5.62223 21.6667L7.86473 23.3675C8.28935 23.6762 8.80229 23.8396 9.32723 23.8334C9.46773 23.8471 9.60924 23.8471 9.74973 23.8334C10.0748 23.7704 10.3837 23.6419 10.6575 23.4557C10.9313 23.2694 11.1643 23.0293 11.3422 22.75L11.5914 22.3925C11.7662 22.1418 11.9975 21.9357 12.2666 21.7908C12.5357 21.6459 12.835 21.5663 13.1406 21.5584C13.4608 21.5505 13.7777 21.6238 14.0619 21.7716C14.346 21.9194 14.5881 22.1367 14.7656 22.4034L14.8956 22.5875C15.0803 22.8624 15.3193 23.0966 15.5979 23.2756C15.8765 23.4546 16.1889 23.5748 16.5156 23.6285C16.8424 23.6823 17.1768 23.6687 17.4981 23.5884C17.8194 23.5081 18.1208 23.3629 18.3839 23.1617L20.5831 21.515C21.103 21.1112 21.4488 20.5237 21.5495 19.8731C21.6503 19.2225 21.4983 18.558 21.1247 18.0159L20.8431 17.6042C20.6737 17.3425 20.5628 17.0473 20.5179 16.7388C20.473 16.4303 20.4953 16.1158 20.5831 15.8167C20.6726 15.4965 20.8387 15.2029 21.0671 14.9613C21.2955 14.7197 21.5792 14.5374 21.8939 14.43L22.1106 14.3542C22.7375 14.1366 23.2553 13.6839 23.5545 13.0915C23.8537 12.4992 23.9108 11.8137 23.7139 11.18ZM12.9997 16.7917C12.2498 16.7917 11.5167 16.5693 10.8932 16.1527C10.2697 15.736 9.78367 15.1439 9.49669 14.451C9.20971 13.7582 9.13462 12.9958 9.28092 12.2603C9.42722 11.5248 9.78835 10.8492 10.3186 10.3189C10.8489 9.78863 11.5245 9.42751 12.26 9.28121C12.9955 9.13491 13.7579 9.20999 14.4507 9.49698C15.1436 9.78396 15.7358 10.2699 16.1524 10.8935C16.569 11.517 16.7914 12.2501 16.7914 13C16.7914 14.0056 16.3919 14.9701 15.6808 15.6811C14.9698 16.3922 14.0053 16.7917 12.9997 16.7917Z" fill="#1E78E0"/>
</g>
<defs>
<clipPath id="clip0_2_4134">
<rect width="26" height="26" fill="white"/>
</clipPath>
</defs>
</svg>
