<svg width="12" height="12" viewBox="0 0 12 12" fill="none" xmlns="http://www.w3.org/2000/svg">
<path d="M5.99984 8.90527C5.29259 8.90527 4.61432 8.62432 4.11422 8.12423C3.61412 7.62413 3.33317 6.94585 3.33317 6.23861C3.33317 5.53136 3.61412 4.85309 4.11422 4.35299C4.61432 3.85289 5.29259 3.57194 5.99984 3.57194C6.70708 3.57194 7.38536 3.85289 7.88546 4.35299C8.38555 4.85309 8.6665 5.53136 8.6665 6.23861C8.6665 6.94585 8.38555 7.62413 7.88546 8.12423C7.38536 8.62432 6.70708 8.90527 5.99984 8.90527ZM9.99984 5.57194H10.6665C10.8433 5.57194 11.0129 5.64218 11.1379 5.7672C11.2629 5.89223 11.3332 6.0618 11.3332 6.23861C11.3332 6.41542 11.2629 6.58499 11.1379 6.71001C11.0129 6.83504 10.8433 6.90527 10.6665 6.90527H9.99984C9.82303 6.90527 9.65346 6.83504 9.52843 6.71001C9.40341 6.58499 9.33317 6.41542 9.33317 6.23861C9.33317 6.0618 9.40341 5.89223 9.52843 5.7672C9.65346 5.64218 9.82303 5.57194 9.99984 5.57194ZM5.99984 9.57194C6.17665 9.57194 6.34622 9.64218 6.47124 9.7672C6.59627 9.89223 6.6665 10.0618 6.6665 10.2386V10.9053C6.6665 11.0821 6.59627 11.2517 6.47124 11.3767C6.34622 11.5017 6.17665 11.5719 5.99984 11.5719C5.82303 11.5719 5.65346 11.5017 5.52843 11.3767C5.40341 11.2517 5.33317 11.0821 5.33317 10.9053V10.2386C5.33317 10.0618 5.40341 9.89223 5.52843 9.7672C5.65346 9.64218 5.82303 9.57194 5.99984 9.57194ZM5.99984 0.905273C6.17665 0.905273 6.34622 0.975511 6.47124 1.10054C6.59627 1.22556 6.6665 1.39513 6.6665 1.57194V2.23861C6.6665 2.41542 6.59627 2.58499 6.47124 2.71001C6.34622 2.83504 6.17665 2.90527 5.99984 2.90527C5.82303 2.90527 5.65346 2.83504 5.52843 2.71001C5.40341 2.58499 5.33317 2.41542 5.33317 2.23861V1.57194C5.33317 1.39513 5.40341 1.22556 5.52843 1.10054C5.65346 0.975511 5.82303 0.905273 5.99984 0.905273ZM1.33317 5.57194H1.99984C2.17665 5.57194 2.34622 5.64218 2.47124 5.7672C2.59627 5.89223 2.6665 6.0618 2.6665 6.23861C2.6665 6.41542 2.59627 6.58499 2.47124 6.71001C2.34622 6.83504 2.17665 6.90527 1.99984 6.90527H1.33317C1.15636 6.90527 0.98679 6.83504 0.861766 6.71001C0.736742 6.58499 0.666504 6.41542 0.666504 6.23861C0.666504 6.0618 0.736742 5.89223 0.861766 5.7672C0.98679 5.64218 1.15636 5.57194 1.33317 5.57194ZM9.29984 8.59527L9.77117 9.06727C9.83484 9.12877 9.88563 9.20233 9.92057 9.28367C9.95551 9.36501 9.9739 9.45249 9.97467 9.54101C9.97544 9.62953 9.95857 9.71731 9.92505 9.79924C9.89153 9.88117 9.84203 9.95561 9.77943 10.0182C9.71684 10.0808 9.6424 10.1303 9.56047 10.1638C9.47854 10.1973 9.39076 10.2142 9.30224 10.2134C9.21372 10.2127 9.12624 10.1943 9.0449 10.1593C8.96356 10.1244 8.89 10.0736 8.8285 10.0099L8.35717 9.53861C8.23208 9.4136 8.16177 9.24402 8.1617 9.06718C8.16164 8.89033 8.23183 8.7207 8.35684 8.59561C8.48184 8.47051 8.65142 8.4002 8.82827 8.40014C9.00512 8.40008 9.17474 8.47027 9.29984 8.59527ZM3.6425 8.59527C3.70449 8.65719 3.75366 8.73071 3.78721 8.81165C3.82076 8.89258 3.83803 8.97933 3.83803 9.06694C3.83803 9.15455 3.82076 9.2413 3.78721 9.32223C3.75366 9.40317 3.70449 9.47669 3.6425 9.53861L3.17117 10.0099C3.10923 10.0718 3.03571 10.1209 2.95479 10.1544C2.87388 10.1879 2.78717 10.2051 2.6996 10.2051C2.52275 10.205 2.35318 10.1347 2.22817 10.0096C2.10317 9.88451 2.03297 9.71488 2.03304 9.53804C2.0331 9.36119 2.10341 9.19161 2.2285 9.06661L2.69984 8.59461C2.82486 8.46963 2.99439 8.39942 3.17117 8.39942C3.34795 8.39942 3.51749 8.46963 3.6425 8.59461V8.59527ZM9.77117 2.46727C9.89615 2.59229 9.96636 2.76183 9.96636 2.93861C9.96636 3.11538 9.89615 3.28492 9.77117 3.40994L9.29984 3.88127C9.1741 4.00271 9.0057 4.06991 8.8309 4.06839C8.65611 4.06687 8.4889 3.99676 8.36529 3.87315C8.24169 3.74955 8.17157 3.58234 8.17005 3.40754C8.16854 3.23274 8.23573 3.06434 8.35717 2.93861L8.8285 2.46727C8.95352 2.34229 9.12306 2.27208 9.29984 2.27208C9.47661 2.27208 9.64615 2.34229 9.77117 2.46727ZM3.17117 2.46727L3.6425 2.93861C3.70618 3.0001 3.75697 3.07367 3.7919 3.155C3.82684 3.23634 3.84524 3.32382 3.846 3.41234C3.84677 3.50086 3.82991 3.58865 3.79639 3.67058C3.76286 3.75251 3.71336 3.82694 3.65077 3.88954C3.58817 3.95213 3.51374 4.00163 3.43181 4.03515C3.34988 4.06868 3.26209 4.08554 3.17357 4.08477C3.08505 4.084 2.99757 4.06561 2.91623 4.03067C2.8349 3.99574 2.76134 3.94495 2.69984 3.88127L2.2285 3.40994C2.10707 3.28421 2.03987 3.1158 2.04139 2.94101C2.04291 2.76621 2.11302 2.599 2.23662 2.47539C2.36023 2.35179 2.52744 2.28168 2.70224 2.28016C2.87703 2.27864 3.04544 2.34583 3.17117 2.46727Z" fill="#6952D8"/>
</svg>
