<svg width="26" height="26" viewBox="0 0 26 26" fill="none" xmlns="http://www.w3.org/2000/svg">
<g clip-path="url(#clip0_2_2794)">
<path d="M19.5 4.33331V7.58331C19.5 8.15795 19.2717 8.70905 18.8654 9.11538C18.4591 9.52171 17.908 9.74998 17.3333 9.74998H8.66667C8.09203 9.74998 7.54093 9.52171 7.1346 9.11538C6.72827 8.70905 6.5 8.15795 6.5 7.58331V4.33331C5.63805 4.33331 4.8114 4.67572 4.2019 5.28522C3.59241 5.89471 3.25 6.72136 3.25 7.58331V20.5833C3.25 21.4453 3.59241 22.2719 4.2019 22.8814C4.8114 23.4909 5.63805 23.8333 6.5 23.8333H19.5C20.362 23.8333 21.1886 23.4909 21.7981 22.8814C22.4076 22.2719 22.75 21.4453 22.75 20.5833V7.58331C22.75 6.72136 22.4076 5.89471 21.7981 5.28522C21.1886 4.67572 20.362 4.33331 19.5 4.33331Z" fill="#A8ABB6"/>
<path d="M17.3333 2.16669H8.66659C8.06828 2.16669 7.58325 2.65171 7.58325 3.25002V7.58335C7.58325 8.18166 8.06828 8.66669 8.66659 8.66669H17.3333C17.9316 8.66669 18.4166 8.18166 18.4166 7.58335V3.25002C18.4166 2.65171 17.9316 2.16669 17.3333 2.16669Z" fill="#A8ABB6"/>
</g>
<defs>
<clipPath id="clip0_2_2794">
<rect width="26" height="26" fill="white"/>
</clipPath>
</defs>
</svg>
